<mxfile host="app.diagrams.net" modified="2023-04-10T10:29:01.830Z" agent="Mozilla/5.0 (X11; Ubuntu; Linux x86_64; rv:103.0) Gecko/20100101 Firefox/103.0" etag="UGv_GKJHnqsncxvSeLHD" version="21.1.5" type="github">
  <diagram name="Página-1" id="WWqpD9CL6zhd6dJ4Jtha">
    <mxGraphModel dx="982" dy="681" grid="1" gridSize="10" guides="1" tooltips="1" connect="1" arrows="1" fold="1" page="1" pageScale="1" pageWidth="827" pageHeight="1169" math="0" shadow="0">
      <root>
        <mxCell id="0" />
        <mxCell id="1" parent="0" />
        <mxCell id="5Sv67f4gUYZvEAF9gc20-8" style="edgeStyle=orthogonalEdgeStyle;rounded=0;orthogonalLoop=1;jettySize=auto;html=1;entryX=0.5;entryY=0.333;entryDx=0;entryDy=0;entryPerimeter=0;" parent="1" source="5Sv67f4gUYZvEAF9gc20-1" target="5Sv67f4gUYZvEAF9gc20-2" edge="1">
          <mxGeometry relative="1" as="geometry" />
        </mxCell>
        <mxCell id="5Sv67f4gUYZvEAF9gc20-14" style="edgeStyle=orthogonalEdgeStyle;rounded=0;orthogonalLoop=1;jettySize=auto;html=1;" parent="1" source="5Sv67f4gUYZvEAF9gc20-1" target="5Sv67f4gUYZvEAF9gc20-2" edge="1">
          <mxGeometry relative="1" as="geometry" />
        </mxCell>
        <mxCell id="5Sv67f4gUYZvEAF9gc20-20" style="edgeStyle=orthogonalEdgeStyle;rounded=0;orthogonalLoop=1;jettySize=auto;html=1;" parent="1" source="5Sv67f4gUYZvEAF9gc20-1" edge="1">
          <mxGeometry relative="1" as="geometry">
            <mxPoint x="260" y="30" as="targetPoint" />
          </mxGeometry>
        </mxCell>
        <mxCell id="5Sv67f4gUYZvEAF9gc20-1" value="Levantamento de necessidades" style="rounded=1;whiteSpace=wrap;html=1;fillColor=#f8cecc;strokeColor=#b85450;" parent="1" vertex="1">
          <mxGeometry x="10" width="120" height="60" as="geometry" />
        </mxCell>
        <mxCell id="5Sv67f4gUYZvEAF9gc20-9" style="edgeStyle=orthogonalEdgeStyle;rounded=0;orthogonalLoop=1;jettySize=auto;html=1;" parent="1" source="5Sv67f4gUYZvEAF9gc20-2" target="5Sv67f4gUYZvEAF9gc20-3" edge="1">
          <mxGeometry relative="1" as="geometry" />
        </mxCell>
        <mxCell id="5Sv67f4gUYZvEAF9gc20-19" style="edgeStyle=orthogonalEdgeStyle;rounded=0;orthogonalLoop=1;jettySize=auto;html=1;" parent="1" source="5Sv67f4gUYZvEAF9gc20-2" edge="1">
          <mxGeometry relative="1" as="geometry">
            <mxPoint x="260" y="140" as="targetPoint" />
          </mxGeometry>
        </mxCell>
        <mxCell id="5Sv67f4gUYZvEAF9gc20-2" value="análise das alternativas" style="rounded=1;whiteSpace=wrap;html=1;fillColor=#e1d5e7;strokeColor=#9673a6;" parent="1" vertex="1">
          <mxGeometry x="10" y="110" width="120" height="60" as="geometry" />
        </mxCell>
        <mxCell id="5Sv67f4gUYZvEAF9gc20-10" style="edgeStyle=orthogonalEdgeStyle;rounded=0;orthogonalLoop=1;jettySize=auto;html=1;" parent="1" source="5Sv67f4gUYZvEAF9gc20-3" target="5Sv67f4gUYZvEAF9gc20-4" edge="1">
          <mxGeometry relative="1" as="geometry" />
        </mxCell>
        <mxCell id="5Sv67f4gUYZvEAF9gc20-18" style="edgeStyle=orthogonalEdgeStyle;rounded=0;orthogonalLoop=1;jettySize=auto;html=1;" parent="1" source="5Sv67f4gUYZvEAF9gc20-3" edge="1">
          <mxGeometry relative="1" as="geometry">
            <mxPoint x="260" y="240" as="targetPoint" />
          </mxGeometry>
        </mxCell>
        <mxCell id="5Sv67f4gUYZvEAF9gc20-3" value="requerimento" style="rounded=1;whiteSpace=wrap;html=1;fillColor=#d5e8d4;strokeColor=#82b366;" parent="1" vertex="1">
          <mxGeometry x="10" y="210" width="120" height="60" as="geometry" />
        </mxCell>
        <mxCell id="5Sv67f4gUYZvEAF9gc20-11" style="edgeStyle=orthogonalEdgeStyle;rounded=0;orthogonalLoop=1;jettySize=auto;html=1;" parent="1" source="5Sv67f4gUYZvEAF9gc20-4" target="5Sv67f4gUYZvEAF9gc20-5" edge="1">
          <mxGeometry relative="1" as="geometry" />
        </mxCell>
        <mxCell id="5Sv67f4gUYZvEAF9gc20-17" style="edgeStyle=orthogonalEdgeStyle;rounded=0;orthogonalLoop=1;jettySize=auto;html=1;" parent="1" source="5Sv67f4gUYZvEAF9gc20-4" edge="1">
          <mxGeometry relative="1" as="geometry">
            <mxPoint x="260" y="360" as="targetPoint" />
          </mxGeometry>
        </mxCell>
        <mxCell id="5Sv67f4gUYZvEAF9gc20-4" value="projeto" style="rounded=1;whiteSpace=wrap;html=1;fillColor=#fff2cc;strokeColor=#d6b656;" parent="1" vertex="1">
          <mxGeometry x="10" y="330" width="120" height="60" as="geometry" />
        </mxCell>
        <mxCell id="5Sv67f4gUYZvEAF9gc20-12" style="edgeStyle=orthogonalEdgeStyle;rounded=0;orthogonalLoop=1;jettySize=auto;html=1;" parent="1" source="5Sv67f4gUYZvEAF9gc20-5" target="5Sv67f4gUYZvEAF9gc20-6" edge="1">
          <mxGeometry relative="1" as="geometry" />
        </mxCell>
        <mxCell id="5Sv67f4gUYZvEAF9gc20-21" style="edgeStyle=orthogonalEdgeStyle;rounded=0;orthogonalLoop=1;jettySize=auto;html=1;" parent="1" source="5Sv67f4gUYZvEAF9gc20-5" edge="1">
          <mxGeometry relative="1" as="geometry">
            <mxPoint x="260" y="470" as="targetPoint" />
          </mxGeometry>
        </mxCell>
        <mxCell id="5Sv67f4gUYZvEAF9gc20-5" value="implementação" style="rounded=1;whiteSpace=wrap;html=1;fillColor=#ffe6cc;strokeColor=#d79b00;" parent="1" vertex="1">
          <mxGeometry x="10" y="440" width="120" height="60" as="geometry" />
        </mxCell>
        <mxCell id="5Sv67f4gUYZvEAF9gc20-13" style="edgeStyle=orthogonalEdgeStyle;rounded=0;orthogonalLoop=1;jettySize=auto;html=1;entryX=0.5;entryY=0;entryDx=0;entryDy=0;" parent="1" source="5Sv67f4gUYZvEAF9gc20-6" target="5Sv67f4gUYZvEAF9gc20-7" edge="1">
          <mxGeometry relative="1" as="geometry" />
        </mxCell>
        <mxCell id="5Sv67f4gUYZvEAF9gc20-22" style="edgeStyle=orthogonalEdgeStyle;rounded=0;orthogonalLoop=1;jettySize=auto;html=1;" parent="1" source="5Sv67f4gUYZvEAF9gc20-6" edge="1">
          <mxGeometry relative="1" as="geometry">
            <mxPoint x="260" y="585" as="targetPoint" />
          </mxGeometry>
        </mxCell>
        <mxCell id="5Sv67f4gUYZvEAF9gc20-6" value="verificação" style="rounded=1;whiteSpace=wrap;html=1;fillColor=#bac8d3;strokeColor=#23445d;" parent="1" vertex="1">
          <mxGeometry x="10" y="555" width="120" height="60" as="geometry" />
        </mxCell>
        <mxCell id="5Sv67f4gUYZvEAF9gc20-23" style="edgeStyle=orthogonalEdgeStyle;rounded=0;orthogonalLoop=1;jettySize=auto;html=1;" parent="1" source="5Sv67f4gUYZvEAF9gc20-7" edge="1">
          <mxGeometry relative="1" as="geometry">
            <mxPoint x="260" y="700" as="targetPoint" />
          </mxGeometry>
        </mxCell>
        <mxCell id="5Sv67f4gUYZvEAF9gc20-7" value="manutenção" style="rounded=1;whiteSpace=wrap;html=1;fillColor=#b0e3e6;strokeColor=#0e8088;" parent="1" vertex="1">
          <mxGeometry x="10" y="670" width="120" height="60" as="geometry" />
        </mxCell>
        <mxCell id="5Sv67f4gUYZvEAF9gc20-16" value="" style="endArrow=none;html=1;rounded=0;" parent="1" edge="1">
          <mxGeometry width="50" height="50" relative="1" as="geometry">
            <mxPoint x="260" y="700" as="sourcePoint" />
            <mxPoint x="260" y="30" as="targetPoint" />
            <Array as="points" />
          </mxGeometry>
        </mxCell>
      </root>
    </mxGraphModel>
  </diagram>
</mxfile>
